<?xml version="1.0" encoding="UTF-8"?>
<svg xmlns="http://www.w3.org/2000/svg" xmlns:xlink="http://www.w3.org/1999/xlink" width="50px" height="13px" viewBox="0 0 48 13" version="1.1">
<g id="surface1">
<path style=" stroke:none;fill-rule:evenodd;fill:rgb(1.568627%,78.039216%,35.294118%);fill-opacity:1;" d="M 0.542969 -0.03125 C 16.160156 -0.03125 31.777344 -0.03125 47.390625 -0.03125 C 47.488281 0.0507812 47.59375 0.128906 47.710938 0.195312 C 47.789062 0.324219 47.875 0.445312 47.96875 0.550781 C 47.96875 4.496094 47.96875 8.4375 47.96875 12.382812 C 47.882812 12.480469 47.808594 12.585938 47.742188 12.707031 C 47.613281 12.785156 47.496094 12.871094 47.390625 12.96875 C 31.777344 12.96875 16.160156 12.96875 0.542969 12.96875 C 0.449219 12.882812 0.34375 12.808594 0.222656 12.738281 C 0.148438 12.609375 0.0625 12.488281 -0.03125 12.382812 C -0.03125 8.4375 -0.03125 4.496094 -0.03125 0.550781 C 0.0507812 0.457031 0.125 0.347656 0.191406 0.226562 C 0.320312 0.148438 0.4375 0.0625 0.542969 -0.03125 Z M 0.542969 -0.03125 "/>
<path style=" stroke:none;fill-rule:evenodd;fill:rgb(99.607843%,100%,99.607843%);fill-opacity:1;" d="M 18.527344 4.386719 C 18.632812 4.386719 18.742188 4.386719 18.847656 4.386719 C 18.847656 5.753906 18.847656 7.117188 18.847656 8.484375 C 18.742188 8.484375 18.632812 8.484375 18.527344 8.484375 C 18.527344 7.117188 18.527344 5.753906 18.527344 4.386719 Z M 18.527344 4.386719 "/>
<path style=" stroke:none;fill-rule:evenodd;fill:rgb(70.980392%,93.333333%,81.176471%);fill-opacity:1;" d="M 18.527344 4.386719 C 18.640625 4.324219 18.769531 4.304688 18.910156 4.324219 C 18.933594 5.71875 18.910156 7.105469 18.847656 8.484375 C 18.847656 7.117188 18.847656 5.753906 18.847656 4.386719 C 18.742188 4.386719 18.632812 4.386719 18.527344 4.386719 Z M 18.527344 4.386719 "/>
<path style=" stroke:none;fill-rule:evenodd;fill:rgb(99.607843%,100%,99.607843%);fill-opacity:1;" d="M 22.238281 4.386719 C 22.347656 4.386719 22.453125 4.386719 22.558594 4.386719 C 22.558594 5.753906 22.558594 7.117188 22.558594 8.484375 C 22.453125 8.484375 22.347656 8.484375 22.238281 8.484375 C 22.238281 7.117188 22.238281 5.753906 22.238281 4.386719 Z M 22.238281 4.386719 "/>
<path style=" stroke:none;fill-rule:evenodd;fill:rgb(66.27451%,92.156863%,77.647059%);fill-opacity:1;" d="M 22.238281 4.386719 C 22.351562 4.324219 22.480469 4.304688 22.625 4.324219 C 22.644531 5.71875 22.625 7.105469 22.558594 8.484375 C 22.558594 7.117188 22.558594 5.753906 22.558594 4.386719 C 22.453125 4.386719 22.347656 4.386719 22.238281 4.386719 Z M 22.238281 4.386719 "/>
<path style=" stroke:none;fill-rule:evenodd;fill:rgb(99.607843%,99.607843%,99.607843%);fill-opacity:1;" d="M 26.078125 4.386719 C 26.1875 4.386719 26.292969 4.386719 26.398438 4.386719 C 26.398438 5.753906 26.398438 7.117188 26.398438 8.484375 C 26.292969 8.484375 26.1875 8.484375 26.078125 8.484375 C 26.078125 7.703125 26.078125 6.921875 26.078125 6.140625 C 25.761719 6.140625 25.441406 6.140625 25.121094 6.140625 C 25.054688 6.519531 25.035156 6.910156 25.054688 7.3125 C 24.480469 7.3125 23.902344 7.3125 23.328125 7.3125 C 23.328125 6.445312 23.328125 5.578125 23.328125 4.710938 C 23.433594 4.710938 23.542969 4.710938 23.648438 4.710938 C 23.648438 5.039062 23.648438 5.363281 23.648438 5.6875 C 24.011719 5.6875 24.375 5.6875 24.734375 5.6875 C 24.734375 5.363281 24.734375 5.039062 24.734375 4.710938 C 24.84375 4.710938 24.949219 4.710938 25.054688 4.710938 C 25.035156 5.09375 25.058594 5.460938 25.121094 5.816406 C 25.441406 5.816406 25.761719 5.816406 26.078125 5.816406 C 26.078125 5.339844 26.078125 4.863281 26.078125 4.386719 Z M 26.078125 4.386719 "/>
<path style=" stroke:none;fill-rule:evenodd;fill:rgb(66.27451%,92.156863%,77.647059%);fill-opacity:1;" d="M 26.078125 4.386719 C 26.191406 4.324219 26.320312 4.304688 26.464844 4.324219 C 26.484375 5.71875 26.464844 7.105469 26.398438 8.484375 C 26.398438 7.117188 26.398438 5.753906 26.398438 4.386719 C 26.292969 4.386719 26.1875 4.386719 26.078125 4.386719 Z M 26.078125 4.386719 "/>
<path style=" stroke:none;fill-rule:evenodd;fill:rgb(52.54902%,89.019608%,68.235294%);fill-opacity:1;" d="M 38.367188 4.324219 C 38.515625 4.324219 38.667969 4.324219 38.816406 4.324219 C 38.816406 5.339844 38.816406 6.359375 38.816406 7.378906 C 38.667969 7.378906 38.515625 7.378906 38.367188 7.378906 C 38.367188 6.359375 38.367188 5.339844 38.367188 4.324219 Z M 38.367188 4.324219 "/>
<path style=" stroke:none;fill-rule:evenodd;fill:rgb(99.607843%,100%,99.607843%);fill-opacity:1;" d="M 38.433594 4.386719 C 38.539062 4.386719 38.644531 4.386719 38.753906 4.386719 C 38.753906 5.363281 38.753906 6.335938 38.753906 7.3125 C 38.644531 7.3125 38.539062 7.3125 38.433594 7.3125 C 38.433594 6.335938 38.433594 5.363281 38.433594 4.386719 Z M 38.433594 4.386719 "/>
<path style=" stroke:none;fill-rule:evenodd;fill:rgb(99.607843%,99.607843%,99.607843%);fill-opacity:1;" d="M 17.953125 4.386719 C 17.953125 5.710938 17.953125 7.03125 17.953125 8.351562 C 17.84375 8.351562 17.738281 8.351562 17.632812 8.351562 C 17.652344 7.5625 17.632812 6.78125 17.566406 6.011719 C 17.289062 6.011719 17.011719 6.011719 16.734375 6.011719 C 16.734375 5.902344 16.734375 5.796875 16.734375 5.6875 C 17.035156 5.6875 17.332031 5.6875 17.632812 5.6875 C 17.632812 5.253906 17.632812 4.820312 17.632812 4.386719 C 17.738281 4.386719 17.84375 4.386719 17.953125 4.386719 Z M 17.953125 4.386719 "/>
<path style=" stroke:none;fill-rule:evenodd;fill:rgb(46.666667%,87.843137%,64.705882%);fill-opacity:1;" d="M 17.953125 4.386719 C 18.015625 5.71875 18.039062 7.0625 18.015625 8.417969 C 17.867188 8.417969 17.71875 8.417969 17.566406 8.417969 C 17.566406 7.617188 17.566406 6.8125 17.566406 6.011719 C 17.632812 6.78125 17.652344 7.5625 17.632812 8.351562 C 17.738281 8.351562 17.84375 8.351562 17.953125 8.351562 C 17.953125 7.03125 17.953125 5.710938 17.953125 4.386719 Z M 17.953125 4.386719 "/>
<path style=" stroke:none;fill-rule:evenodd;fill:rgb(99.607843%,99.607843%,99.607843%);fill-opacity:1;" d="M 9.632812 6.46875 C 9.613281 6.417969 9.582031 6.371094 9.535156 6.335938 C 9.503906 7.03125 9.492188 7.722656 9.503906 8.417969 C 9.097656 8.417969 8.691406 8.417969 8.289062 8.417969 C 8.289062 7.117188 8.289062 5.816406 8.289062 4.515625 C 8.695312 4.507812 9.097656 4.515625 9.503906 4.550781 C 9.9375 5.226562 10.398438 5.890625 10.878906 6.53125 C 10.910156 5.859375 10.921875 5.191406 10.910156 4.515625 C 11.316406 4.515625 11.722656 4.515625 12.128906 4.515625 C 12.128906 5.816406 12.128906 7.117188 12.128906 8.417969 C 11.742188 8.429688 11.359375 8.417969 10.976562 8.386719 C 10.515625 7.753906 10.066406 7.113281 9.632812 6.46875 Z M 9.632812 6.46875 "/>
<path style=" stroke:none;fill-rule:evenodd;fill:rgb(96.862745%,99.215686%,97.647059%);fill-opacity:1;" d="M 36.320312 4.515625 C 37.359375 4.496094 37.773438 4.996094 37.566406 6.011719 C 37.246094 6.527344 36.789062 6.710938 36.191406 6.566406 C 35.644531 6.289062 35.445312 5.847656 35.585938 5.234375 C 35.738281 4.890625 35.984375 4.652344 36.320312 4.515625 Z M 36.320312 4.515625 "/>
<path style=" stroke:none;fill-rule:evenodd;fill:rgb(96.470588%,99.215686%,97.254902%);fill-opacity:1;" d="M 20.128906 4.582031 C 20.8125 4.550781 21.226562 4.875 21.375 5.558594 C 21.464844 6.101562 21.398438 6.621094 21.183594 7.117188 C 20.46875 7.804688 19.890625 7.695312 19.457031 6.792969 C 19.3125 6.242188 19.335938 5.703125 19.519531 5.167969 C 19.675781 4.914062 19.875 4.71875 20.128906 4.582031 Z M 20.128906 4.582031 "/>
<path style=" stroke:none;fill-rule:evenodd;fill:rgb(98.431373%,99.607843%,98.823529%);fill-opacity:1;" d="M 30.945312 5.882812 C 30.21875 5.882812 29.492188 5.882812 28.769531 5.882812 C 28.769531 6.097656 28.769531 6.316406 28.769531 6.53125 C 29.535156 6.53125 30.304688 6.53125 31.070312 6.53125 C 31.070312 6.640625 31.070312 6.75 31.070312 6.859375 C 30.667969 6.859375 30.261719 6.859375 29.855469 6.859375 C 29.855469 7.097656 29.855469 7.335938 29.855469 7.574219 C 30.433594 7.574219 31.007812 7.574219 31.585938 7.574219 C 32.4375 7.574219 33.289062 7.574219 34.144531 7.574219 C 34.144531 7.484375 34.144531 7.398438 34.144531 7.3125 C 34.257812 6.644531 34.320312 5.972656 34.335938 5.296875 C 34.394531 5.226562 34.417969 5.140625 34.398438 5.039062 C 33.652344 5.039062 32.90625 5.039062 32.160156 5.039062 C 32.160156 4.929688 32.160156 4.820312 32.160156 4.710938 C 33.011719 4.710938 33.867188 4.710938 34.71875 4.710938 C 34.695312 5.582031 34.628906 6.449219 34.527344 7.3125 C 34.46875 7.382812 34.445312 7.46875 34.464844 7.574219 C 34.761719 7.574219 35.0625 7.574219 35.359375 7.574219 C 35.359375 7.660156 35.359375 7.746094 35.359375 7.832031 C 32.84375 7.855469 30.324219 7.875 27.808594 7.898438 C 27.808594 7.8125 27.808594 7.722656 27.808594 7.636719 C 28.375 7.660156 28.929688 7.636719 29.472656 7.574219 C 29.472656 7.335938 29.472656 7.097656 29.472656 6.859375 C 29.144531 6.792969 28.800781 6.773438 28.449219 6.792969 C 28.449219 6.402344 28.449219 6.011719 28.449219 5.621094 C 29.164062 5.644531 29.867188 5.621094 30.558594 5.558594 C 30.558594 5.363281 30.558594 5.167969 30.558594 4.972656 C 29.835938 4.972656 29.109375 4.972656 28.382812 4.972656 C 28.382812 4.863281 28.382812 4.753906 28.382812 4.648438 C 29.238281 4.648438 30.089844 4.648438 30.945312 4.648438 C 30.945312 5.058594 30.945312 5.472656 30.945312 5.882812 Z M 30.945312 5.882812 "/>
<path style=" stroke:none;fill-rule:evenodd;fill:rgb(95.294118%,98.823529%,96.862745%);fill-opacity:1;" d="M 15.585938 4.648438 C 15.710938 4.648438 15.839844 4.648438 15.96875 4.648438 C 15.96875 5.425781 15.96875 6.207031 15.96875 6.988281 C 16.417969 6.972656 16.867188 6.929688 17.3125 6.859375 C 17.3125 6.964844 17.3125 7.074219 17.3125 7.183594 C 16.742188 7.285156 16.164062 7.328125 15.585938 7.3125 C 15.585938 6.425781 15.585938 5.535156 15.585938 4.648438 Z M 15.585938 4.648438 "/>
<path style=" stroke:none;fill-rule:evenodd;fill:rgb(68.235294%,92.54902%,79.215686%);fill-opacity:1;" d="M 24.734375 4.710938 C 24.847656 4.648438 24.976562 4.628906 25.121094 4.648438 C 25.121094 5.039062 25.121094 5.425781 25.121094 5.816406 C 25.058594 5.460938 25.035156 5.09375 25.054688 4.710938 C 24.949219 4.710938 24.84375 4.710938 24.734375 4.710938 Z M 24.734375 4.710938 "/>
<path style=" stroke:none;fill-rule:evenodd;fill:rgb(10.980392%,78.823529%,37.647059%);fill-opacity:1;" d="M 36.449219 4.84375 C 37.074219 4.863281 37.339844 5.1875 37.246094 5.816406 C 37.054688 6.214844 36.742188 6.355469 36.320312 6.238281 C 35.941406 5.988281 35.847656 5.652344 36.03125 5.234375 C 36.128906 5.050781 36.265625 4.917969 36.449219 4.84375 Z M 36.449219 4.84375 "/>
<path style=" stroke:none;fill-rule:evenodd;fill:rgb(6.666667%,78.431373%,36.470588%);fill-opacity:1;" d="M 20.128906 4.972656 C 20.582031 4.871094 20.871094 5.046875 20.992188 5.492188 C 21.0625 5.984375 21.019531 6.460938 20.863281 6.921875 C 20.3125 7.363281 19.953125 7.234375 19.777344 6.53125 C 19.734375 6.207031 19.734375 5.882812 19.777344 5.558594 C 19.828125 5.320312 19.945312 5.125 20.128906 4.972656 Z M 20.128906 4.972656 "/>
<path style=" stroke:none;fill-rule:evenodd;fill:rgb(54.509804%,89.411765%,70.196078%);fill-opacity:1;" d="M 32.160156 5.039062 C 32.90625 5.039062 33.652344 5.039062 34.398438 5.039062 C 34.417969 5.140625 34.394531 5.226562 34.335938 5.296875 C 34.335938 5.234375 34.335938 5.167969 34.335938 5.101562 C 33.597656 5.125 32.875 5.101562 32.160156 5.039062 Z M 32.160156 5.039062 "/>
<path style=" stroke:none;fill-rule:evenodd;fill:rgb(48.235294%,88.235294%,65.882353%);fill-opacity:1;" d="M 9.632812 6.46875 C 9.589844 7.117188 9.546875 7.765625 9.503906 8.417969 C 9.492188 7.722656 9.503906 7.03125 9.535156 6.335938 C 9.582031 6.371094 9.613281 6.417969 9.632812 6.46875 Z M 9.632812 6.46875 "/>
<path style=" stroke:none;fill-rule:evenodd;fill:rgb(36.862745%,85.490196%,58.431373%);fill-opacity:1;" d="M 30.945312 5.882812 C 30.25 5.945312 29.546875 5.96875 28.832031 5.949219 C 28.832031 6.121094 28.832031 6.292969 28.832031 6.46875 C 29.589844 6.445312 30.335938 6.46875 31.070312 6.53125 C 30.304688 6.53125 29.535156 6.53125 28.769531 6.53125 C 28.769531 6.316406 28.769531 6.097656 28.769531 5.882812 C 29.492188 5.882812 30.21875 5.882812 30.945312 5.882812 Z M 30.945312 5.882812 "/>
<path style=" stroke:none;fill-rule:evenodd;fill:rgb(68.627451%,92.54902%,79.215686%);fill-opacity:1;" d="M 30.558594 5.558594 C 29.867188 5.621094 29.164062 5.644531 28.449219 5.621094 C 28.449219 6.011719 28.449219 6.402344 28.449219 6.792969 C 28.800781 6.773438 29.144531 6.792969 29.472656 6.859375 C 29.109375 6.859375 28.746094 6.859375 28.382812 6.859375 C 28.382812 6.425781 28.382812 5.992188 28.382812 5.558594 C 29.109375 5.558594 29.835938 5.558594 30.558594 5.558594 Z M 30.558594 5.558594 "/>
<path style=" stroke:none;fill-rule:evenodd;fill:rgb(24.705882%,82.745098%,50.196078%);fill-opacity:1;" d="M 23.648438 6.011719 C 24.011719 6.011719 24.375 6.011719 24.734375 6.011719 C 24.734375 6.359375 24.734375 6.707031 24.734375 7.050781 C 24.375 7.050781 24.011719 7.050781 23.648438 7.050781 C 23.648438 6.707031 23.648438 6.359375 23.648438 6.011719 Z M 23.648438 6.011719 "/>
<path style=" stroke:none;fill-rule:evenodd;fill:rgb(1.176471%,78.039216%,34.901961%);fill-opacity:1;" d="M 23.710938 6.078125 C 24.03125 6.078125 24.351562 6.078125 24.671875 6.078125 C 24.671875 6.378906 24.671875 6.683594 24.671875 6.988281 C 24.351562 6.988281 24.03125 6.988281 23.710938 6.988281 C 23.710938 6.683594 23.710938 6.378906 23.710938 6.078125 Z M 23.710938 6.078125 "/>
<path style=" stroke:none;fill-rule:evenodd;fill:rgb(98.823529%,99.607843%,99.215686%);fill-opacity:1;" d="M 36.257812 7.117188 C 36.382812 7.117188 36.511719 7.117188 36.640625 7.117188 C 36.640625 7.441406 36.640625 7.765625 36.640625 8.09375 C 37.386719 8.09375 38.132812 8.09375 38.878906 8.09375 C 38.878906 8.199219 38.878906 8.308594 38.878906 8.417969 C 38.003906 8.417969 37.128906 8.417969 36.257812 8.417969 C 36.257812 7.984375 36.257812 7.550781 36.257812 7.117188 Z M 36.257812 7.117188 "/>
<path style=" stroke:none;fill-rule:evenodd;fill:rgb(82.352941%,95.686275%,88.235294%);fill-opacity:1;" d="M 23.648438 4.710938 C 23.542969 4.710938 23.433594 4.710938 23.328125 4.710938 C 23.328125 5.578125 23.328125 6.445312 23.328125 7.3125 C 23.902344 7.3125 24.480469 7.3125 25.054688 7.3125 C 25.035156 6.910156 25.054688 6.519531 25.121094 6.140625 C 25.121094 6.554688 25.121094 6.964844 25.121094 7.378906 C 24.5 7.378906 23.882812 7.378906 23.265625 7.378906 C 23.265625 6.46875 23.265625 5.558594 23.265625 4.648438 C 23.40625 4.628906 23.535156 4.648438 23.648438 4.710938 Z M 23.648438 4.710938 "/>
<path style=" stroke:none;fill-rule:evenodd;fill:rgb(61.568627%,90.980392%,74.901961%);fill-opacity:1;" d="M 34.144531 7.3125 C 34.144531 7.398438 34.144531 7.484375 34.144531 7.574219 C 33.289062 7.574219 32.4375 7.574219 31.585938 7.574219 C 32.40625 7.507812 33.238281 7.484375 34.078125 7.507812 C 34.066406 7.421875 34.085938 7.359375 34.144531 7.3125 Z M 34.144531 7.3125 "/>
<path style=" stroke:none;fill-rule:evenodd;fill:rgb(60%,90.588235%,73.72549%);fill-opacity:1;" d="M 34.527344 7.3125 C 34.527344 7.378906 34.527344 7.441406 34.527344 7.507812 C 34.816406 7.488281 35.09375 7.507812 35.359375 7.574219 C 35.0625 7.574219 34.761719 7.574219 34.464844 7.574219 C 34.445312 7.46875 34.46875 7.382812 34.527344 7.3125 Z M 34.527344 7.3125 "/>
<path style=" stroke:none;fill-rule:evenodd;fill:rgb(78.823529%,94.901961%,85.882353%);fill-opacity:1;" d="M 29.472656 7.574219 C 28.929688 7.636719 28.375 7.660156 27.808594 7.636719 C 27.808594 7.722656 27.808594 7.8125 27.808594 7.898438 C 27.746094 7.804688 27.726562 7.695312 27.742188 7.574219 C 28.320312 7.574219 28.894531 7.574219 29.472656 7.574219 Z M 29.472656 7.574219 "/>
</g>
</svg>
